# xmcd
#
# Track frame offsets:
#	150
#	17751
#	32399
#	60127
#	85835
#	103180
#
# Disc length: 1670 seconds
#
# Revision: 0
# Processed by: cddbd v1.5.2PL0 Copyright (c) Steve Scherf et al.
# Submitted via: audiograbber 1.83.01
#
DISCID=38068406
DTITLE=Powerwolf - The Rock Hard Sacrament
DYEAR=2013
DGENRE=Heavy Metal
TTITLE0=Amen and Attack
TTITLE1=In the name of god (Deus vult)
TTITLE2=Headless Cross
TTITLE3=Nightcrawler
TTITLE4=Living on a nightmare
TTITLE5=Amen and Attack (Orchesterversion)
EXTD=
EXTT0=
EXTT1=
EXTT2=
EXTT3=
EXTT4=
EXTT5=
PLAYORDER=
